<svg xmlns="http://www.w3.org/2000/svg" width="48" height="48"><g fill="none" fill-rule="evenodd"><path fill="#14273C" d="M36 24c0 6.627-5.373 12-12 12s-12-5.373-12-12 5.373-12 12-12 12 5.373 12 12"/><path fill="#C4D534" d="M16.662 21.545l4.062-5.201 2.959-3.789-7.705-6.274-4.81-3.916-9.98 12.778 4.81 3.917 9.608-2.239z"/><path fill="#1FD35B" d="M18.112 28.03l-1.45-6.485-1.056-4.724-9.608 2.239L0 20.457l3.562 15.935 5.998-1.398 4.276-9.066z"/><path fill="#4AE6CC" d="M23.982 30.917l-5.87-2.887-4.276-2.102-4.276 9.066-2.669 5.659 14.422 7.092 2.669-5.66-4.276-9.066z"/><path fill="#4188D9" d="M29.852 28.03l-5.87 2.887-4.276 2.102 4.276 9.066 2.669 5.66 14.422-7.092-2.669-5.659-9.608-2.239z"/><path fill="#B879F2" d="M44.402 36.392l3.562-15.934-5.998-1.398-7.705 6.274-2.959-3.789-1.45 6.485-1.056 4.725"/><path fill="#D9418D" d="M36.796 2.365l-4.81 3.917v10.062H27.24l4.062 5.201 2.959 3.789 12.515-10.191z"/><path fill="#F58221" d="M31.986 6.282V0H15.978v6.282l7.705 6.273-2.959 3.789h11.262z"/></g></svg>